<svg xmlns="http://www.w3.org/2000/svg" width="48" height="48" viewBox="0 0 24 24" fill="none" stroke="url(#g)" stroke-width="1.5" stroke-linecap="round" stroke-linejoin="round">
  <defs><linearGradient id="g" x1="0" y1="0" x2="1" y2="1"><stop offset="0%" stop-color="#3b82f6"/><stop offset="100%" stop-color="#8b5cf6"/></linearGradient></defs>
  <circle cx="12" cy="12" r="1"/>
  <path d="M20.2 20.2c1.7-2.3 2.8-5.1 2.8-8.2 0-6.1-4.9-11-11-11S1 5.9 1 12c0 3.1 1.1 5.9 2.8 8.2"/>
  <path d="M12 2a15.3 15.3 0 0 1 4 10 15.3 15.3 0 0 1-4 10"/>
  <path d="M12 2a15.3 15.3 0 0 0-4 10 15.3 15.3 0 0 0 4 10"/>
</svg>
